# xmcd
#
# Track frame offsets:
#	150
#	18284
#	35268
#	49365
#	64854
#	80415
#	98182
#	115325
#	133310
#	152504
#	170814
#	190477
#	231028
#
# Disc length: 3291 seconds
#
# Revision: 0
# Processed by: cddbd v1.5.2PL0 Copyright (c) Steve Scherf et al.
# Submitted via: EZCDAudioConverter 2.2.2.1
#
DISCID=b00cd90d
DTITLE=Sasha, Benny Y Erik - Entre Amigos CD 1
DYEAR=1900
DGENRE=
TTITLE0=Punto de Partida
TTITLE1=Esta Noche
TTITLE2=Todo Tiene Su Lugar
TTITLE3=Cada Beso
TTITLE4=Si No Es Ahora
TTITLE5=Rueda Mi Mente
TTITLE6=Cuando Mueres por Alguien
TTITLE7=Cielo
TTITLE8=Serás el Aire
TTITLE9=Inspiración 
TTITLE10=Cómo Hemos Cambiado
TTITLE11=Medley Soda Stereo
TTITLE12=Ay, Amor (feat. Playa Limbo)
EXTD=
EXTT0=
EXTT1=
EXTT2=
EXTT3=
EXTT4=
EXTT5=
EXTT6=
EXTT7=
EXTT8=
EXTT9=
EXTT10=
EXTT11=
EXTT12=
PLAYORDER=
